<svg width="118" height="14" viewBox="0 0 118 14" fill="none" xmlns="http://www.w3.org/2000/svg">
<path d="M0.692 0.399999H6.2C7.544 0.399999 8.738 0.663999 9.782 1.192C10.826 1.708 11.636 2.446 12.212 3.406C12.788 4.354 13.076 5.452 13.076 6.7C13.076 7.948 12.788 9.052 12.212 10.012C11.636 10.96 10.826 11.698 9.782 12.226C8.738 12.742 7.544 13 6.2 13H0.692V0.399999ZM6.092 11.02C7.016 11.02 7.826 10.846 8.522 10.498C9.23 10.138 9.77 9.634 10.142 8.986C10.526 8.326 10.718 7.564 10.718 6.7C10.718 5.836 10.526 5.08 10.142 4.432C9.77 3.772 9.23 3.268 8.522 2.92C7.826 2.56 7.016 2.38 6.092 2.38H3.032V11.02H6.092ZM25.1931 11.038V13H15.7431V0.399999H24.9411V2.362H18.0831V5.638H24.1671V7.564H18.0831V11.038H25.1931ZM31.8877 13.18C30.9157 13.18 29.9737 13.042 29.0617 12.766C28.1617 12.49 27.4477 12.124 26.9197 11.668L27.7297 9.85C28.2457 10.258 28.8757 10.594 29.6197 10.858C30.3757 11.11 31.1317 11.236 31.8877 11.236C32.8237 11.236 33.5197 11.086 33.9757 10.786C34.4437 10.486 34.6777 10.09 34.6777 9.598C34.6777 9.238 34.5457 8.944 34.2817 8.716C34.0297 8.476 33.7057 8.29 33.3097 8.158C32.9137 8.026 32.3737 7.876 31.6897 7.708C30.7297 7.48 29.9497 7.252 29.3497 7.024C28.7617 6.796 28.2517 6.442 27.8197 5.962C27.3997 5.47 27.1897 4.81 27.1897 3.982C27.1897 3.286 27.3757 2.656 27.7477 2.092C28.1317 1.516 28.7017 1.06 29.4577 0.723999C30.2257 0.387999 31.1617 0.219999 32.2657 0.219999C33.0337 0.219999 33.7897 0.316 34.5337 0.508C35.2777 0.7 35.9197 0.976 36.4597 1.336L35.7217 3.154C35.1697 2.83 34.5937 2.584 33.9937 2.416C33.3937 2.248 32.8117 2.164 32.2477 2.164C31.3237 2.164 30.6337 2.32 30.1777 2.632C29.7337 2.944 29.5117 3.358 29.5117 3.874C29.5117 4.234 29.6377 4.528 29.8897 4.756C30.1537 4.984 30.4837 5.164 30.8797 5.296C31.2757 5.428 31.8157 5.578 32.4997 5.746C33.4357 5.962 34.2037 6.19 34.8037 6.43C35.4037 6.658 35.9137 7.012 36.3337 7.492C36.7657 7.972 36.9817 8.62 36.9817 9.436C36.9817 10.132 36.7897 10.762 36.4057 11.326C36.0337 11.89 35.4637 12.34 34.6957 12.676C33.9277 13.012 32.9917 13.18 31.8877 13.18ZM39.482 0.399999H41.822V13H39.482V0.399999ZM54.014 6.556H56.228V11.578C55.58 12.094 54.824 12.49 53.96 12.766C53.096 13.042 52.208 13.18 51.296 13.18C50.012 13.18 48.854 12.904 47.822 12.352C46.79 11.788 45.98 11.014 45.392 10.03C44.804 9.046 44.51 7.936 44.51 6.7C44.51 5.464 44.804 4.354 45.392 3.37C45.98 2.386 46.79 1.618 47.822 1.066C48.866 0.501999 50.036 0.219999 51.332 0.219999C52.388 0.219999 53.348 0.393999 54.212 0.741999C55.076 1.09 55.802 1.6 56.39 2.272L54.914 3.712C53.954 2.752 52.796 2.272 51.44 2.272C50.552 2.272 49.76 2.458 49.064 2.83C48.38 3.202 47.84 3.724 47.444 4.396C47.06 5.068 46.868 5.836 46.868 6.7C46.868 7.54 47.06 8.296 47.444 8.968C47.84 9.64 48.38 10.168 49.064 10.552C49.76 10.936 50.546 11.128 51.422 11.128C52.406 11.128 53.27 10.912 54.014 10.48V6.556ZM70.6903 0.399999V13H68.7643L61.8163 4.468V13H59.4943V0.399999H61.4203L68.3683 8.932V0.399999H70.6903ZM74.7506 13.126C74.3426 13.126 73.9946 12.988 73.7066 12.712C73.4186 12.424 73.2746 12.064 73.2746 11.632C73.2746 11.188 73.4126 10.828 73.6886 10.552C73.9766 10.276 74.3306 10.138 74.7506 10.138C75.1706 10.138 75.5186 10.276 75.7946 10.552C76.0826 10.828 76.2266 11.188 76.2266 11.632C76.2266 12.064 76.0826 12.424 75.7946 12.712C75.5066 12.988 75.1586 13.126 74.7506 13.126ZM84.0051 0.399999C85.0971 0.399999 86.0451 0.579999 86.8491 0.94C87.6651 1.3 88.2891 1.816 88.7211 2.488C89.1531 3.16 89.3691 3.958 89.3691 4.882C89.3691 5.794 89.1531 6.592 88.7211 7.276C88.2891 7.948 87.6651 8.464 86.8491 8.824C86.0451 9.184 85.0971 9.364 84.0051 9.364H81.1611V13H78.8211V0.399999H84.0051ZM83.8971 7.384C84.9171 7.384 85.6911 7.168 86.2191 6.736C86.7471 6.304 87.0111 5.686 87.0111 4.882C87.0111 4.078 86.7471 3.46 86.2191 3.028C85.6911 2.596 84.9171 2.38 83.8971 2.38H81.1611V7.384H83.8971ZM100.13 13L97.5559 9.31C97.4479 9.322 97.2859 9.328 97.0699 9.328H94.2259V13H91.8859V0.399999H97.0699C98.1619 0.399999 99.1099 0.579999 99.9139 0.94C100.73 1.3 101.354 1.816 101.786 2.488C102.218 3.16 102.434 3.958 102.434 4.882C102.434 5.83 102.2 6.646 101.732 7.33C101.276 8.014 100.616 8.524 99.7519 8.86L102.65 13H100.13ZM100.076 4.882C100.076 4.078 99.8119 3.46 99.2839 3.028C98.7559 2.596 97.9819 2.38 96.9619 2.38H94.2259V7.402H96.9619C97.9819 7.402 98.7559 7.186 99.2839 6.754C99.8119 6.31 100.076 5.686 100.076 4.882ZM111.118 13.18C109.834 13.18 108.676 12.904 107.644 12.352C106.612 11.788 105.802 11.014 105.214 10.03C104.626 9.034 104.332 7.924 104.332 6.7C104.332 5.476 104.626 4.372 105.214 3.388C105.802 2.392 106.612 1.618 107.644 1.066C108.676 0.501999 109.834 0.219999 111.118 0.219999C112.402 0.219999 113.56 0.501999 114.592 1.066C115.624 1.618 116.434 2.386 117.022 3.37C117.61 4.354 117.904 5.464 117.904 6.7C117.904 7.936 117.61 9.046 117.022 10.03C116.434 11.014 115.624 11.788 114.592 12.352C113.56 12.904 112.402 13.18 111.118 13.18ZM111.118 11.128C111.958 11.128 112.714 10.942 113.386 10.57C114.058 10.186 114.586 9.658 114.97 8.986C115.354 8.302 115.546 7.54 115.546 6.7C115.546 5.86 115.354 5.104 114.97 4.432C114.586 3.748 114.058 3.22 113.386 2.848C112.714 2.464 111.958 2.272 111.118 2.272C110.278 2.272 109.522 2.464 108.85 2.848C108.178 3.22 107.65 3.748 107.266 4.432C106.882 5.104 106.69 5.86 106.69 6.7C106.69 7.54 106.882 8.302 107.266 8.986C107.65 9.658 108.178 10.186 108.85 10.57C109.522 10.942 110.278 11.128 111.118 11.128Z" fill="white"/>
</svg>
